<svg width="24" height="24" viewBox="0 0 24 24" fill="none" xmlns="http://www.w3.org/2000/svg">
<path d="M11.536 16.568H9.484L6.052 11.36V16.568H4V8.084H6.052L9.484 13.34V8.084H11.536V16.568Z" fill="#24AE4B"/>
<path d="M16.8291 8C17.9091 8 18.8011 8.284 19.5051 8.852C20.2171 9.42 20.6771 10.188 20.8851 11.156H18.7131C18.5531 10.764 18.3051 10.456 17.9691 10.232C17.6411 10.008 17.2491 9.896 16.7931 9.896C16.1931 9.896 15.7091 10.116 15.3411 10.556C14.9731 10.996 14.7891 11.584 14.7891 12.32C14.7891 13.056 14.9731 13.644 15.3411 14.084C15.7091 14.516 16.1931 14.732 16.7931 14.732C17.2491 14.732 17.6411 14.62 17.9691 14.396C18.3051 14.172 18.5531 13.868 18.7131 13.484H20.8851C20.6771 14.444 20.2171 15.212 19.5051 15.788C18.8011 16.356 17.9091 16.64 16.8291 16.64C16.0051 16.64 15.2811 16.46 14.6571 16.1C14.0331 15.732 13.5491 15.22 13.2051 14.564C12.8691 13.908 12.7011 13.16 12.7011 12.32C12.7011 11.48 12.8691 10.732 13.2051 10.076C13.5491 9.42 14.0331 8.912 14.6571 8.552C15.2811 8.184 16.0051 8 16.8291 8Z" fill="#24AE4B"/>
</svg>
