<svg width="24" height="24" viewBox="0 0 24 24" fill="none" xmlns="http://www.w3.org/2000/svg">
<path d="M7.052 13.508V16.484H5V8H8.324C9.332 8 10.1 8.252 10.628 8.756C11.156 9.252 11.42 9.924 11.42 10.772C11.42 11.3 11.3 11.772 11.06 12.188C10.828 12.596 10.48 12.92 10.016 13.16C9.552 13.392 8.988 13.508 8.324 13.508H7.052ZM8.096 11.864C8.92 11.864 9.332 11.5 9.332 10.772C9.332 10.028 8.92 9.656 8.096 9.656H7.052V11.864H8.096Z" fill="#87AE24"/>
<path d="M14.4817 13.508V16.484H12.4297V8H15.7537C16.7617 8 17.5297 8.252 18.0577 8.756C18.5857 9.252 18.8497 9.924 18.8497 10.772C18.8497 11.3 18.7297 11.772 18.4897 12.188C18.2577 12.596 17.9097 12.92 17.4457 13.16C16.9817 13.392 16.4177 13.508 15.7537 13.508H14.4817ZM15.5257 11.864C16.3497 11.864 16.7617 11.5 16.7617 10.772C16.7617 10.028 16.3497 9.656 15.5257 9.656H14.4817V11.864H15.5257Z" fill="#87AE24"/>
</svg>
