<svg width="24" height="24" viewBox="0 0 24 24" fill="none" xmlns="http://www.w3.org/2000/svg">
<path d="M10.312 17.104L9.208 15.604C8.888 15.668 8.58 15.7 8.284 15.7C7.492 15.7 6.768 15.516 6.112 15.148C5.464 14.772 4.948 14.252 4.564 13.588C4.188 12.924 4 12.176 4 11.344C4 10.512 4.188 9.768 4.564 9.112C4.948 8.448 5.464 7.932 6.112 7.564C6.768 7.188 7.492 7 8.284 7C9.084 7 9.808 7.188 10.456 7.564C11.112 7.932 11.628 8.448 12.004 9.112C12.38 9.768 12.568 10.512 12.568 11.344C12.568 12.08 12.416 12.752 12.112 13.36C11.816 13.968 11.404 14.468 10.876 14.86L12.772 17.104H10.312ZM6.088 11.344C6.088 12.088 6.284 12.68 6.676 13.12C7.076 13.56 7.612 13.78 8.284 13.78C8.948 13.78 9.48 13.56 9.88 13.12C10.28 12.68 10.48 12.088 10.48 11.344C10.48 10.6 10.28 10.008 9.88 9.568C9.488 9.128 8.956 8.908 8.284 8.908C7.612 8.908 7.076 9.128 6.676 9.568C6.284 10 6.088 10.592 6.088 11.344Z" fill="#115451"/>
<path d="M15.7727 14.044H18.5087V15.616H13.7207V7.132H15.7727V14.044Z" fill="#115451"/>
</svg>
